<svg width="250" height="67" viewBox="0 0 250 67" fill="none" xmlns="http://www.w3.org/2000/svg">
<path fill-rule="evenodd" clip-rule="evenodd" d="M49.9808 17.0124C47.9937 16.077 45.6977 15.678 43.4184 15.8721C36.8112 16.4519 32.1079 21.9259 32.9135 28.0987C33.0138 28.8767 33.2012 29.6454 33.4734 30.3952C31.8786 28.5157 30.898 26.3326 30.6249 24.0541C29.8641 18.2491 33.4605 13.108 38.7814 12.0867C39.1213 12.0204 39.4661 11.9719 39.8135 11.9414C39.931 11.9308 40.0507 11.9238 40.1704 11.9168C44.1065 11.7014 47.7927 13.7543 49.9808 17.0124Z" fill="#FF3369"/>
<path fill-rule="evenodd" clip-rule="evenodd" d="M42.9616 12.6141C36.3821 16.0054 28.091 14.9018 24.4433 10.146C24.0868 9.68221 23.7828 9.19262 23.5352 8.68338C26.8516 10.2949 31.9011 10.7591 37.1365 9.6573C44.1327 8.18415 49.1971 4.39004 49.6779 0.616943C50.9109 4.91904 48.3423 9.83948 42.9616 12.6141Z" fill="#FF3369"/>
<path fill-rule="evenodd" clip-rule="evenodd" d="M39.3656 5.7457C39.3652 6.291 39.1675 6.82396 38.7976 7.27718C38.4276 7.73039 37.9021 8.08351 37.2873 8.29187C36.6726 8.50023 35.9962 8.55448 35.3439 8.44775C34.6915 8.34103 34.0924 8.07812 33.6223 7.69229C33.1522 7.30645 32.8323 6.81501 32.7029 6.28011C32.5735 5.74522 32.6406 5.19089 32.8955 4.68722C33.1505 4.18355 33.5819 3.75317 34.1353 3.4505C34.6886 3.14783 35.339 2.98647 36.0043 2.98682C36.4461 2.98682 36.8835 3.0582 37.2916 3.19689C37.6997 3.33558 38.0704 3.53885 38.3826 3.79509C38.6948 4.05132 38.9423 4.35548 39.111 4.69018C39.2796 5.02489 39.3662 5.38356 39.3656 5.7457Z" fill="#FF3369"/>
<path fill-rule="evenodd" clip-rule="evenodd" d="M17.1633 35.0056C17.1689 36.8838 17.8948 38.7129 19.2382 40.2343C23.1552 44.6345 31.2903 45.2354 37.4018 41.5779C38.1703 41.1189 38.8856 40.6029 39.5387 40.0364C38.351 42.1086 36.5353 43.8967 34.2649 45.2301C28.5124 48.6721 21.2832 48.6896 17.5415 45.4228C17.3022 45.2135 17.0795 44.9917 16.8748 44.7589C16.8043 44.6801 16.7359 44.5995 16.6611 44.5189C14.4879 41.8301 14.817 38.1866 17.1633 35.0056Z" fill="#1B7DD8"/>
<path fill-rule="evenodd" clip-rule="evenodd" d="M16.0203 42.1877C22.8946 45.1656 25.8735 51.6012 22.6745 56.5689C22.3619 57.0533 21.9964 57.5136 21.5826 57.944C21.6253 54.791 19.5932 50.9671 15.813 47.8001C10.7571 43.5715 4.21822 41.8742 0 43.4209C3.92119 40.3923 10.4045 39.7564 16.0203 42.1877Z" fill="#1B7DD8"/>
<path fill-rule="evenodd" clip-rule="evenodd" d="M10.567 48.1747C11.1431 47.902 11.8049 47.7754 12.4687 47.8111C13.1325 47.8467 13.7686 48.0429 14.2964 48.3748C14.8242 48.7067 15.2201 49.1595 15.4339 49.6759C15.6478 50.1923 15.6701 50.749 15.4979 51.2758C15.3258 51.8025 14.9669 52.2756 14.4668 52.6352C13.9666 52.9947 13.3476 53.2247 12.6881 53.2958C12.0285 53.367 11.358 53.2763 10.7614 53.0351C10.1647 52.7939 9.66873 52.4131 9.33612 51.9408C9.11502 51.6273 8.97146 51.2812 8.91366 50.9222C8.85586 50.5632 8.88495 50.1984 8.99927 49.8486C9.11358 49.4989 9.31088 49.171 9.57987 48.8838C9.84887 48.5965 10.1843 48.3556 10.567 48.1747Z" fill="#1B7DD8"/>
<path fill-rule="evenodd" clip-rule="evenodd" d="M52.5813 49.3135C54.5632 48.3702 56.1331 46.94 57.0688 45.2251C59.7592 40.2451 56.3273 34.1686 49.4038 31.6532C48.5345 31.3376 47.6318 31.0878 46.707 30.907C49.4889 30.7142 52.2846 31.1092 54.8272 32.0543C61.3405 34.4173 64.9732 39.541 63.3919 43.8308C63.2918 44.1049 63.1705 44.3734 63.0286 44.6348C62.9816 44.7259 62.9303 44.81 62.8769 44.9011C61.1311 47.7931 57.118 49.3818 52.5813 49.3135Z" fill="#FF3369"/>
<path fill-rule="evenodd" clip-rule="evenodd" d="M60.7383 46.523C60.4434 40.1557 65.7557 34.8219 72.6044 34.6117C73.2723 34.5905 73.9411 34.6198 74.6024 34.6992C71.2432 36.2477 68.2259 39.6039 66.7729 43.8675C64.8304 49.5709 66.3092 55.0624 70.0551 57.2905C64.8924 56.0135 60.9797 51.729 60.7383 46.523Z" fill="#FF3369"/>
<path fill-rule="evenodd" clip-rule="evenodd" d="M69.7922 47.4042C69.2162 47.1314 68.7517 46.7247 68.4577 46.2355C68.1636 45.7463 68.0532 45.1966 68.1403 44.656C68.2274 44.1153 68.5081 43.608 68.947 43.1981C69.3858 42.7882 69.9631 42.4943 70.6058 42.3534C71.2485 42.2125 71.9277 42.231 72.5576 42.4065C73.1875 42.5821 73.7397 42.9069 74.1444 43.3397C74.5491 43.7725 74.7881 44.294 74.8312 44.8383C74.8743 45.3825 74.7195 45.9249 74.3865 46.397C74.1657 46.7106 73.8716 46.9854 73.5212 47.2057C73.1707 47.426 72.7707 47.5876 72.344 47.6811C71.9173 47.7747 71.4723 47.7983 71.0345 47.7508C70.5966 47.7033 70.1745 47.5856 69.7922 47.4042Z" fill="#FF3369"/>
<path fill-rule="evenodd" clip-rule="evenodd" d="M27.237 18.2424C25.2552 19.1857 23.6853 20.616 22.7496 22.3308C20.0592 27.3108 23.4911 33.3874 30.4167 35.9028C31.2867 36.2186 32.1901 36.4683 33.1156 36.649C30.3338 36.8409 27.5383 36.4459 24.9954 35.5016C18.4822 33.1369 14.8495 28.015 16.4308 23.7252C16.5312 23.4506 16.6525 23.1815 16.794 22.9194C16.8432 22.8301 16.8923 22.7442 16.9458 22.6549C18.6873 19.7576 22.7025 18.1689 27.237 18.2424Z" fill="#1CCF9A"/>
<path fill-rule="evenodd" clip-rule="evenodd" d="M19.0771 21.0255C19.3719 27.3928 14.0596 32.7284 7.21089 32.9369C6.54309 32.9578 5.87436 32.9291 5.21289 32.851C8.57209 31.3008 11.5894 27.9464 13.0425 23.681C14.9849 17.9776 13.5083 12.4879 9.7602 10.2598C14.9229 11.535 18.8377 15.8196 19.0771 21.0255Z" fill="#1CCF9A"/>
<path fill-rule="evenodd" clip-rule="evenodd" d="M10.0236 20.1446C10.5998 20.4173 11.0643 20.8239 11.3586 21.313C11.6528 21.802 11.7635 22.3517 11.6767 22.8923C11.5898 23.433 11.3094 23.9404 10.8707 24.3504C10.4321 24.7604 9.85497 25.0545 9.21238 25.1956C8.56979 25.3368 7.89058 25.3185 7.26065 25.1432C6.63072 24.9679 6.07835 24.6434 5.67342 24.2107C5.26848 23.778 5.02915 23.2567 4.9857 22.7125C4.94225 22.1683 5.09663 21.6258 5.42932 21.1536C5.64998 20.8399 5.94391 20.565 6.2943 20.3445C6.64469 20.124 7.04466 19.9622 7.47135 19.8685C7.89804 19.7748 8.34308 19.751 8.78102 19.7983C9.21895 19.8457 9.64121 19.9634 10.0236 20.1446Z" fill="#1CCF9A"/>
<path fill-rule="evenodd" clip-rule="evenodd" d="M29.834 50.5398C31.8211 51.4752 34.1171 51.8742 36.3964 51.6801C43.0036 51.1003 47.7069 45.6263 46.9013 39.4535C46.8004 38.6785 46.613 37.9127 46.3415 37.1658C47.9369 39.045 48.9176 41.2282 49.1899 43.5068C49.9507 49.3118 46.3543 54.4512 41.0334 55.4742C40.6933 55.5397 40.3486 55.5882 40.0013 55.6196C39.8838 55.6284 39.7641 55.6371 39.6445 55.6424C35.7083 55.8491 32.0222 53.7944 29.834 50.5398Z" fill="#1CCF9A"/>
<path fill-rule="evenodd" clip-rule="evenodd" d="M36.8531 54.9365C43.4326 51.5453 51.7238 52.6488 55.3715 57.4046C55.7276 57.868 56.0315 58.357 56.2796 58.8655C52.9632 57.2557 47.9137 56.7915 42.6783 57.8916C35.6821 59.3665 30.6198 63.1606 30.139 66.9337C28.9039 62.6263 31.4746 57.7111 36.8531 54.9365Z" fill="#1CCF9A"/>
<path fill-rule="evenodd" clip-rule="evenodd" d="M40.4492 61.805C40.4492 61.2596 40.6465 60.7265 41.0162 60.273C41.3859 59.8196 41.9113 59.4662 42.526 59.2576C43.1408 59.0489 43.8171 58.9944 44.4697 59.101C45.1222 59.2075 45.7215 59.4703 46.1918 59.856C46.6621 60.2418 46.9823 60.7332 47.1118 61.2682C47.2413 61.8031 47.1744 62.3575 46.9195 62.8613C46.6646 63.3651 46.2332 63.7956 45.6798 64.0983C45.1264 64.401 44.4759 64.5624 43.8106 64.5621C43.369 64.5621 42.9317 64.4908 42.5237 64.3522C42.1158 64.2136 41.7451 64.0105 41.433 63.7545C41.1208 63.4984 40.8733 63.1945 40.7045 62.86C40.5357 62.5255 40.4489 62.167 40.4492 61.805Z" fill="#1CCF9A"/>
<path fill-rule="evenodd" clip-rule="evenodd" d="M62.6549 32.5448C62.6488 30.6664 61.9222 28.8372 60.5778 27.3161C56.6609 22.9159 48.5257 22.3133 42.4142 25.9725C41.6463 26.4315 40.9311 26.9468 40.2773 27.5123C41.4652 25.4406 43.2809 23.6531 45.5512 22.3203C51.3037 18.8783 58.5328 18.8608 62.2745 22.1276C62.5146 22.3351 62.738 22.5551 62.9434 22.7863C63.0132 22.8668 63.0844 22.9474 63.157 23.028C65.3281 25.7203 64.999 29.3638 62.6549 32.5448Z" fill="#1B7DD8"/>
<path fill-rule="evenodd" clip-rule="evenodd" d="M63.7921 25.3629C56.9177 22.3851 53.9389 15.9495 57.1399 10.9817C57.4511 10.497 57.8159 10.0367 58.2297 9.60669C58.187 12.7597 60.2213 16.5836 63.9993 19.7488C69.0552 23.9791 75.5941 25.6765 79.8123 24.128C75.8954 27.1584 69.4121 27.7943 63.7921 25.3629Z" fill="#1B7DD8"/>
<path fill-rule="evenodd" clip-rule="evenodd" d="M69.249 19.3755C68.6728 19.6479 68.0109 19.7742 67.3471 19.7383C66.6834 19.7024 66.0475 19.5059 65.5199 19.1738C64.9923 18.8416 64.5967 18.3887 64.3831 17.8723C64.1696 17.3559 64.1476 16.7991 64.32 16.2725C64.4925 15.7458 64.8515 15.2729 65.3518 14.9135C65.8521 14.5541 66.4712 14.3244 67.1308 14.2534C67.7903 14.1825 68.4607 14.2734 69.0573 14.5148C69.6538 14.7561 70.1496 15.137 70.482 15.6094C70.7027 15.923 70.8459 16.2692 70.9034 16.6282C70.9609 16.9873 70.9316 17.352 70.8171 17.7018C70.7026 18.0515 70.5052 18.3793 70.2361 18.6665C69.9671 18.9536 69.6316 19.1946 69.249 19.3755Z" fill="#1B7DD8"/>
<path fill-rule="evenodd" clip-rule="evenodd" d="M126.123 44.7779C122.37 44.4563 120.965 41.7354 120.965 37.9466C120.965 29.9993 127.063 17.3305 129.249 12.9211C130.735 9.38319 132.221 6.02865 133.16 4.04102L142.306 4.84829L134.881 17.9995C132.613 22.1002 127.472 32.5948 127.472 37.1265C127.472 38.4934 127.941 39.3007 129.034 39.3007C130.836 39.2396 134.119 35.8239 136.698 30.6683L138.885 32.0352C138.885 32.0352 133.962 44.9002 127.144 44.9002L126.123 44.7779ZM110.92 38.8751C110.696 35.8105 110.623 32.749 110.623 29.6748V26.8576C109.061 26.6143 107.499 26.4303 105.937 26.3055C103.702 30.4711 101.313 34.7001 98.6426 38.8656C96.4115 42.4189 94.2536 45.7849 92.9165 47.809L85.3984 46.9588C85.3984 46.9588 88.9706 42.3046 92.9165 36.9748C95.5959 33.301 98.0505 29.6261 100.28 25.9502C98.3536 25.8868 96.3383 25.8868 94.4039 25.8868L96.188 22.6413C98.1956 22.765 100.134 22.9585 101.918 23.1933C104.097 19.5617 106.139 15.9021 108.207 12.1944C109.174 10.4606 110.147 8.71627 111.143 6.95939H116.129C116.15 8.7439 116.159 10.5233 116.168 12.2964V12.2965C116.191 16.7931 116.213 21.2488 116.426 25.6425C119.328 26.315 120.965 26.8068 120.965 26.8068L119.104 28.8277L116.576 28.0917C116.8 31.0326 117.17 34.0338 117.69 36.9748L119.721 46.9588L111.76 47.8185C111.517 45.7944 111.22 42.4284 110.92 38.8751ZM108.89 20.445L108.89 20.445L108.89 20.4456C108.323 21.5881 107.759 22.7257 107.201 23.8627L110.696 24.475C110.728 23.8983 110.759 23.324 110.79 22.7511L110.79 22.7507L110.79 22.7505C110.916 20.4048 111.041 18.0823 111.22 15.7188V15.7156C110.445 17.3084 109.666 18.8812 108.89 20.4448L108.89 20.4448L108.89 20.4449L108.89 20.4449L108.89 20.445ZM138.749 34.8896C138.749 39.5842 140.273 43.6794 143.588 44.6561C144.163 44.8303 144.762 44.9122 145.363 44.8985C148.609 44.8985 151.925 42.5748 153.912 40.2174C155.709 38.0467 157.386 35.7831 158.935 33.4364C158.787 34.3243 158.712 35.2118 158.712 36.0787C158.712 40.2714 160.44 43.9196 164.2 44.8324L165.1 44.952C167.431 44.952 169.618 42.8242 171.565 40.6964C171.478 41.1392 171.401 41.5371 171.33 41.9065C170.97 43.7687 170.751 44.9076 170.062 47.4449C157.436 50.9703 156.533 57.0547 156.533 58.6286V59.0535C156.533 61.7259 158.035 64.096 161.869 65.1316C162.327 65.2552 162.806 65.3221 163.29 65.3299C168.7 65.3299 173.133 56.7589 176.064 49.1006C178.133 47.4381 180.017 45.6394 181.697 43.7261C181.608 44.1171 181.519 44.5085 181.43 44.9004L186.124 44.8416C192.251 33.8541 196.598 28.9587 199.53 26.8682C198.871 28.8941 198.342 30.9473 197.944 33.0191L203.649 32.1811C204.307 30.273 205.029 28.3619 205.893 26.4508C206.165 25.8178 206.312 25.1526 206.327 24.4809C206.327 22.6872 205.029 21.5523 202.934 21.5523C201.707 21.5523 200.189 21.9729 198.599 22.8666C196.089 24.2396 193.343 26.6889 190.744 30.8699C191.825 27.8238 192.981 24.719 194.353 21.7317H187.415C185.784 26.6229 184.515 31.5618 183.337 36.5664C182.402 37.8444 181.38 39.0814 180.276 40.2714L178.329 42.2796L179.606 37.9642C180.509 34.8637 182.989 25.2004 183.888 21.5523H175.399L175.095 23.0726C174.539 22.6092 173.874 22.2413 173.138 21.9909C172.402 21.7405 171.612 21.6127 170.813 21.6153H170.514C164.785 21.8408 160.984 26.2556 159.462 31.2024L157.635 29.9491C156.505 32.0408 155.174 34.0222 153.661 35.8662C151.087 38.9881 148.685 40.4194 146.969 40.4194C145.047 40.4194 143.787 38.7288 143.787 35.7349C143.837 34.1945 144.081 32.6662 144.515 31.185H153.661C154.262 29.1102 154.595 26.9695 154.653 24.8133C154.653 21.56 153.527 18.6334 149.553 18.6334H149.155C142.463 18.9601 138.749 27.6085 138.749 34.8896ZM150.415 24.106V24.9513C150.435 25.9581 150.323 26.9632 150.082 27.9419H145.641C146.9 24.8873 148.558 22.6107 149.553 22.6107C150.016 22.6107 150.346 23.0654 150.415 24.106ZM167.131 56.0034C167.87 54.4133 168.496 52.7908 169.007 51.1434C166.283 52.2986 161.495 54.5461 161.495 57.401C161.508 58.048 161.741 58.6797 162.169 59.2266C162.287 59.4215 162.468 59.5867 162.694 59.7043C162.92 59.8219 163.181 59.8874 163.449 59.8939C164.5 59.9034 165.777 58.8111 167.131 56.0129V56.0034ZM170.588 36.8027C172.39 34.6749 173.312 31.6342 173.312 31.6342L170.759 31.5146C171.584 30.4822 171.958 28.7195 171.958 27.1992V26.4689C171.884 25.5593 171.432 25.1312 170.907 25.1312C169.33 25.1312 166.547 28.112 165.648 31.82C165.198 33.5189 164.945 35.2482 164.893 36.9853C164.893 38.8739 165.423 39.7804 166.4 39.7804C167.376 39.7804 168.859 38.7542 170.588 36.809V36.8027ZM211.981 44.9C211.626 44.8897 211.273 44.8463 210.93 44.7708C207.535 44.1316 206.326 41.3197 206.326 37.5473C206.326 32.301 208.67 25.2662 210.851 19.702H218.692L216.913 23.0141C215.138 27.3628 213.036 34.5267 213.036 38.1699C213.016 38.7098 213.097 39.249 213.279 39.7697H213.522C215.054 39.7697 217.708 37.1498 220.308 32.9932L220.392 32.8641C220.622 32.4691 220.852 32.0756 221.082 31.6676C222.405 26.5689 226.18 21.8503 232.01 21.6198H232.301C233.103 21.6048 233.898 21.7347 234.63 21.9999C235.362 22.2652 236.012 22.6593 236.533 23.1536L237.115 21.5523H244.121C241.854 25.7581 239.889 30.0252 238.793 34.4672C238.487 35.6566 238.316 36.8662 238.283 38.0809C238.283 39.5013 238.721 40.1516 239.451 40.1516C241.128 40.1516 244.34 36.5992 246.966 31.3259L249.007 32.6297C249.007 32.6297 244.412 44.9004 238.049 44.9004L237.115 44.7777C234.708 44.3052 233.541 42.5291 233.174 40.0412C231.285 42.1732 229.089 44.3635 226.682 44.3635L225.881 44.247C222.982 43.5403 221.327 41.1515 220.769 38.1508C220.516 38.5445 220.254 38.9351 219.985 39.3225L219.906 39.5776V39.4517C217.963 42.1378 215.46 44.5655 212.63 44.8238H212.387C212.387 44.8321 212.385 44.8403 212.381 44.8479C212.377 44.8555 212.371 44.8625 212.364 44.8683C212.36 44.8718 212.355 44.8749 212.349 44.8774C212.346 44.8792 212.342 44.8807 212.338 44.882C212.334 44.8832 212.331 44.8842 212.327 44.885C212.32 44.8861 212.314 44.8868 212.308 44.8868L211.981 44.9ZM211.531 17.4676L212.852 15.3H220.776L219.455 17.4676H211.531ZM230.807 37.7473C230.735 37.8412 230.683 37.9091 230.548 37.9091V37.8969C229.528 38.8448 228.579 39.3172 227.922 39.3295C227.049 39.3295 226.463 38.5043 226.463 36.6637C226.463 35.4213 226.754 33.7616 227.264 31.5713C228.141 27.9576 230.862 25.0525 232.373 25.0525C232.883 25.0525 233.321 25.4697 233.393 26.3563V27.068C233.393 28.5497 233.031 30.2676 232.226 31.2738L233.979 31.3903L233.688 32.8137C233.688 32.8137 232.445 36.0195 230.986 37.5533C230.902 37.6213 230.851 37.6892 230.807 37.7473Z" fill="#FF3369"/>
<path d="M152.938 4.03784H156.017C156.93 4.03784 157.597 4.23982 158.019 4.64378C158.444 5.04774 158.659 5.64245 158.659 6.42792C158.701 7.0616 158.472 7.68737 158.013 8.19804C157.773 8.42253 157.473 8.59838 157.136 8.71179C156.799 8.8252 156.435 8.87308 156.072 8.85166H155.08V11.253H152.944L152.938 4.03784ZM155.655 7.48831C155.769 7.4944 155.884 7.47678 155.988 7.43707C156.092 7.39737 156.182 7.33685 156.25 7.26108C156.408 7.01559 156.477 6.73815 156.449 6.46159C156.478 6.17658 156.412 5.89044 156.257 5.63403C156.196 5.5585 156.113 5.49728 156.014 5.45644C155.916 5.4156 155.806 5.39655 155.696 5.4012H155.073V7.48831H155.655Z" fill="#1B7DD8"/>
<path d="M162.451 4.03687H165.661C167.441 4.03687 168.329 4.75408 168.327 6.1885C168.337 6.53438 168.263 6.87844 168.111 7.2012C167.964 7.48547 167.713 7.72548 167.393 7.88849C167.643 8.02217 167.833 8.21919 167.934 8.44954C168.042 8.69488 168.096 8.95438 168.091 9.21537V11.2604H166.003V9.336C166.007 9.15863 165.969 8.98233 165.89 8.81703C165.844 8.73832 165.768 8.67382 165.674 8.63294C165.58 8.59205 165.472 8.57694 165.367 8.5898H164.549V11.2604H162.465L162.451 4.03687ZM165.422 7.29377C165.519 7.29567 165.616 7.2777 165.703 7.24148C165.79 7.20526 165.865 7.1519 165.921 7.08618C166.069 6.86534 166.134 6.61337 166.106 6.36242C166.138 6.09986 166.071 5.83566 165.914 5.60501C165.853 5.53776 165.772 5.48394 165.679 5.44825C165.585 5.41255 165.483 5.39606 165.381 5.40022H164.535V7.29377H165.422Z" fill="#1B7DD8"/>
<path d="M175.467 11.4033C175.002 11.4068 174.54 11.3471 174.098 11.2266C173.692 11.1102 173.327 10.9126 173.038 10.6515C172.718 10.3561 172.484 10.005 172.353 9.62477C172.183 9.1227 172.103 8.60287 172.117 8.08188V7.20663C172.102 6.68521 172.184 6.16495 172.36 5.66374C172.493 5.28445 172.727 4.9339 173.044 4.63702C173.338 4.38156 173.703 4.18893 174.109 4.07597C175.006 3.84024 175.97 3.84024 176.867 4.07597C177.271 4.18765 177.635 4.38053 177.924 4.63702C178.241 4.93437 178.475 5.28476 178.609 5.66374C178.782 6.1654 178.863 6.68543 178.848 7.20663V8.08188C178.861 8.60266 178.783 9.12227 178.616 9.62477C178.484 10.0047 178.25 10.3556 177.931 10.6515C177.645 10.9135 177.282 11.1115 176.877 11.2266C176.423 11.3502 175.946 11.41 175.467 11.4033ZM175.467 5.24856C175.265 5.24234 175.065 5.28529 174.892 5.372C174.736 5.46407 174.617 5.59195 174.55 5.73948C174.462 5.93636 174.407 6.14206 174.386 6.35103C174.352 6.63913 174.336 6.92844 174.338 7.21786V8.05943C174.336 8.34792 174.352 8.6363 174.386 8.92345C174.407 9.13247 174.462 9.33821 174.55 9.535C174.617 9.68261 174.736 9.81053 174.892 9.90249C175.056 9.99222 175.25 10.0365 175.447 10.0287C175.65 10.0372 175.851 9.99299 176.022 9.90249C176.178 9.81103 176.298 9.68295 176.364 9.535C176.453 9.33843 176.507 9.13252 176.525 8.92345C176.549 8.6794 176.562 8.39046 176.562 8.05943V7.21786C176.588 6.71748 176.518 6.21691 176.357 5.73387C176.302 5.58253 176.184 5.45152 176.025 5.36307C175.865 5.27461 175.673 5.23416 175.481 5.24856H175.467Z" fill="#1B7DD8"/>
<path d="M182.637 11.2523V4.03714H185.566C186.04 4.0325 186.512 4.08737 186.966 4.19984C187.378 4.30169 187.75 4.48918 188.047 4.74406C188.364 5.03389 188.598 5.37793 188.732 5.75115C188.911 6.24804 188.995 6.76474 188.981 7.28282V8.00658C188.997 8.52512 188.91 9.0423 188.725 9.53825C188.582 9.91382 188.337 10.2581 188.01 10.5453C187.711 10.7989 187.339 10.987 186.928 11.0924C186.484 11.2017 186.023 11.2556 185.559 11.2523H182.637ZM184.762 9.84963H185.303C185.507 9.85187 185.711 9.83014 185.908 9.78511C186.086 9.73994 186.243 9.65078 186.357 9.52983C186.497 9.37414 186.594 9.19505 186.641 9.00525C186.716 8.71398 186.749 8.41644 186.74 8.11878V7.18744C186.747 6.89197 186.716 6.59672 186.648 6.30659C186.606 6.11582 186.513 5.93486 186.377 5.7764C186.266 5.65431 186.112 5.56321 185.936 5.51551C185.739 5.46747 185.535 5.44383 185.33 5.44538H184.762V9.84963Z" fill="#1B7DD8"/>
<path d="M196.044 11.4035C195.566 11.4113 195.09 11.3583 194.631 11.2464C194.24 11.1522 193.886 10.9751 193.604 10.733C193.312 10.4656 193.1 10.1457 192.985 9.79886C192.832 9.33454 192.76 8.85467 192.773 8.37379V4.03687H194.99V8.20267C194.99 8.53369 194.99 8.81421 195.025 9.04425C195.037 9.23627 195.085 9.42558 195.168 9.6053C195.228 9.73812 195.34 9.85074 195.487 9.9251C195.655 9.9967 195.844 10.0306 196.034 10.0233C196.224 10.0298 196.413 9.99596 196.582 9.9251C196.728 9.8506 196.839 9.73792 196.897 9.6053C196.98 9.42537 197.029 9.23625 197.044 9.04425C197.064 8.81141 197.075 8.53088 197.075 8.20267V4.03687H199.292V8.34293C199.305 8.835 199.239 9.32634 199.097 9.80447C198.989 10.1521 198.783 10.4741 198.495 10.7442C198.216 10.9879 197.861 11.1636 197.468 11.252C197.005 11.3579 196.525 11.4089 196.044 11.4035Z" fill="#1B7DD8"/>
<path d="M203.08 9.96401L206.475 5.44194H203.172V4.03931H208.864V5.30167L205.524 9.83497H208.946V11.2376H203.08V9.96401Z" fill="#1B7DD8"/>
<path d="M212.734 4.03687H214.952V11.252H212.734V4.03687Z" fill="#1B7DD8"/>
<path d="M218.738 4.03687H220.494L222.937 7.96423V4.03687H224.991V11.252H223.235L220.792 7.47611V11.252H218.738V4.03687Z" fill="#1B7DD8"/>
<path d="M228.777 11.2523V4.03714H231.707C232.181 4.0325 232.653 4.08737 233.106 4.19984C233.518 4.3009 233.89 4.4874 234.188 4.74126C234.504 5.03108 234.738 5.37512 234.872 5.74834C235.052 6.24524 235.136 6.76194 235.122 7.28002V8.00377C235.137 8.52232 235.051 9.03949 234.865 9.53544C234.721 9.91051 234.477 10.2545 234.15 10.5425C233.851 10.7961 233.479 10.9842 233.069 11.0896C232.625 11.1989 232.163 11.2528 231.7 11.2495L228.777 11.2523ZM230.903 9.84963H231.443C231.648 9.85188 231.852 9.83015 232.049 9.78511C232.227 9.73994 232.383 9.65078 232.497 9.52984C232.638 9.37415 232.735 9.19506 232.781 9.00525C232.857 8.71398 232.89 8.41644 232.881 8.11879V7.18744C232.888 6.89198 232.857 6.59672 232.788 6.30659C232.746 6.11582 232.654 5.93486 232.518 5.7764C232.407 5.65431 232.253 5.56321 232.076 5.51551C231.88 5.46747 231.676 5.44383 231.471 5.44538H230.903V9.84963Z" fill="#1B7DD8"/>
<path d="M242.264 11.4033C241.799 11.4068 241.336 11.3471 240.895 11.2266C240.489 11.1102 240.124 10.9126 239.834 10.6515C239.516 10.3554 239.282 10.0046 239.15 9.62477C238.979 9.1227 238.9 8.60287 238.914 8.08188V7.20664C238.9 6.68529 238.982 6.16524 239.157 5.66374C239.292 5.28497 239.525 4.93468 239.841 4.63702C240.133 4.38106 240.497 4.1883 240.902 4.07597C241.799 3.84024 242.763 3.84024 243.66 4.07597C244.064 4.18765 244.428 4.38054 244.718 4.63702C245.034 4.93443 245.268 5.2848 245.402 5.66374C245.572 6.16581 245.652 6.68564 245.638 7.20664V8.08188C245.65 8.60245 245.573 9.12184 245.409 9.62477C245.281 10.0031 245.053 10.3536 244.742 10.6515C244.454 10.9131 244.09 11.1109 243.684 11.2266C243.226 11.3512 242.746 11.4109 242.264 11.4033ZM242.264 5.24856C242.062 5.24234 241.862 5.28529 241.689 5.372C241.533 5.46407 241.414 5.59195 241.347 5.73949C241.259 5.93636 241.204 6.14206 241.183 6.35103C241.149 6.63913 241.133 6.92844 241.135 7.21786V8.05944C241.133 8.34792 241.149 8.6363 241.183 8.92346C241.203 9.13248 241.258 9.33821 241.347 9.535C241.414 9.68262 241.533 9.81054 241.689 9.90249C241.853 9.99151 242.047 10.0357 242.243 10.0287C242.441 10.0416 242.638 10.0001 242.804 9.91064C242.969 9.82119 243.094 9.68898 243.157 9.535C243.245 9.33826 243.298 9.13237 243.315 8.92346C243.342 8.6794 243.352 8.39046 243.352 8.05944V7.21786C243.376 6.71769 243.308 6.21738 243.15 5.73388C243.094 5.58361 242.977 5.45359 242.818 5.36534C242.659 5.27709 242.469 5.23589 242.278 5.24856H242.264Z" fill="#1B7DD8"/>
</svg>
