<svg width="196" height="75" viewBox="0 0 196 75" fill="none" xmlns="http://www.w3.org/2000/svg">
<path fill-rule="evenodd" clip-rule="evenodd" d="M45.7173 18.2741C43.8999 17.2315 41.8 16.7868 39.7154 17.0031C33.6725 17.6493 29.371 23.7505 30.1078 30.6307C30.1995 31.4977 30.3709 32.3545 30.6198 33.1902C29.1613 31.0954 28.2644 28.6621 28.0147 26.1226C27.3189 19.6525 30.6081 13.9223 35.4745 12.784C35.7854 12.7101 36.1007 12.656 36.4184 12.622C36.5259 12.6103 36.6354 12.6025 36.7448 12.5947C40.3448 12.3545 43.716 14.6427 45.7173 18.2741Z" fill="white"/>
<path fill-rule="evenodd" clip-rule="evenodd" d="M39.2906 13.3718C33.2731 17.1516 25.6901 15.9216 22.354 10.6209C22.028 10.1039 21.7499 9.55826 21.5234 8.99067C24.5566 10.7868 29.1748 11.3042 33.963 10.0762C40.3616 8.43424 44.9934 4.20541 45.4332 0C46.5608 4.79502 44.2117 10.2792 39.2906 13.3718Z" fill="white"/>
<path fill-rule="evenodd" clip-rule="evenodd" d="M36.0039 5.71677C36.0035 6.32456 35.8227 6.91858 35.4844 7.42373C35.1461 7.92887 34.6654 8.32244 34.1031 8.55468C33.5409 8.78691 32.9223 8.84737 32.3257 8.72842C31.729 8.60947 31.1811 8.31644 30.7512 7.8864C30.3212 7.45635 30.0286 6.90861 29.9103 6.31242C29.792 5.71624 29.8533 5.09839 30.0865 4.53702C30.3197 3.97564 30.7142 3.49595 31.2203 3.1586C31.7264 2.82125 32.3213 2.6414 32.9297 2.64179C33.3337 2.64178 33.7338 2.72135 34.107 2.87593C34.4803 3.03051 34.8194 3.25707 35.1049 3.54266C35.3904 3.82825 35.6168 4.16727 35.771 4.54032C35.9253 4.91337 36.0044 5.31314 36.0039 5.71677Z" fill="white"/>
<path fill-rule="evenodd" clip-rule="evenodd" d="M15.699 38.3289C15.7041 40.4222 16.368 42.461 17.5967 44.1567C21.1791 49.061 28.6193 49.7307 34.2088 45.6542C34.9117 45.1426 35.5659 44.5674 36.1632 43.9361C35.0769 46.2456 33.4163 48.2386 31.3398 49.7248C26.0787 53.5613 19.467 53.5808 16.0449 49.9396C15.826 49.7063 15.6223 49.4591 15.4352 49.1997C15.3707 49.1118 15.3081 49.022 15.2397 48.9322C13.2521 45.9353 13.5531 41.8744 15.699 38.3289Z" fill="white"/>
<path fill-rule="evenodd" clip-rule="evenodd" d="M14.6519 46.3335C20.9391 49.6525 23.6635 56.8255 20.7378 62.3624C20.4518 62.9023 20.1176 63.4153 19.7391 63.895C19.7782 60.3808 17.9196 56.1188 14.4623 52.5889C9.83828 47.8758 3.85792 45.984 0 47.7079C3.58626 44.3323 9.51581 43.6236 14.6519 46.3335Z" fill="white"/>
<path fill-rule="evenodd" clip-rule="evenodd" d="M9.66352 53.0068C10.1904 52.7029 10.7957 52.5618 11.4028 52.6015C12.0099 52.6412 12.5916 52.8599 13.0744 53.2299C13.5571 53.5998 13.9191 54.1045 14.1148 54.68C14.3104 55.2556 14.3307 55.8761 14.1733 56.4632C14.0158 57.0503 13.6876 57.5776 13.2302 57.9784C12.7728 58.3791 12.2066 58.6354 11.6034 58.7147C11.0002 58.7941 10.387 58.6929 9.8413 58.4241C9.29562 58.1553 8.842 57.7308 8.5378 57.2044C8.33559 56.855 8.20429 56.4692 8.15143 56.0691C8.09857 55.669 8.12517 55.2624 8.22972 54.8726C8.33427 54.4827 8.51471 54.1173 8.76073 53.7971C9.00676 53.477 9.31353 53.2085 9.66352 53.0068Z" fill="white"/>
<path fill-rule="evenodd" clip-rule="evenodd" d="M48.0874 54.2759C49.9 53.2246 51.3358 51.6304 52.1916 49.7191C54.6521 44.1685 51.5134 37.3957 45.1813 34.5921C44.3862 34.2404 43.5606 33.962 42.7148 33.7604C45.2591 33.5455 47.816 33.9858 50.1414 35.0392C56.0983 37.673 59.4208 43.3837 57.9745 48.165C57.883 48.4705 57.772 48.7698 57.6423 49.0612C57.5993 49.1627 57.5524 49.2564 57.5035 49.3579C55.9068 52.5813 52.2365 54.3521 48.0874 54.2759Z" fill="white"/>
<path fill-rule="evenodd" clip-rule="evenodd" d="M55.5517 51.1657C55.282 44.0688 60.1406 38.1239 66.4043 37.8896C67.0151 37.8659 67.6268 37.8986 68.2317 37.9872C65.1594 39.7131 62.3998 43.4538 61.0709 48.2059C59.2943 54.5628 60.6468 60.6835 64.0728 63.1669C59.351 61.7437 55.7726 56.9682 55.5517 51.1657Z" fill="white"/>
<path fill-rule="evenodd" clip-rule="evenodd" d="M63.8322 52.1476C63.3054 51.8435 62.8806 51.3902 62.6117 50.845C62.3428 50.2997 62.2417 49.6871 62.3214 49.0845C62.401 48.4818 62.6578 47.9164 63.0592 47.4596C63.4606 47.0027 63.9885 46.6751 64.5763 46.518C65.1641 46.361 65.7853 46.3816 66.3614 46.5773C66.9375 46.773 67.4425 47.1349 67.8126 47.6174C68.1828 48.0998 68.4014 48.6811 68.4408 49.2876C68.4802 49.8942 68.3387 50.4988 68.0341 51.025C67.8321 51.3745 67.5632 51.6807 67.2427 51.9263C66.9221 52.1719 66.5563 52.352 66.1661 52.4562C65.7758 52.5605 65.3689 52.5869 64.9684 52.5339C64.568 52.481 64.1819 52.3497 63.8322 52.1476Z" fill="white"/>
<path fill-rule="evenodd" clip-rule="evenodd" d="M50.1205 10.1756C48.2609 13.6926 48.6816 17.8697 50.8473 21.2999C47.883 21.117 44.5661 22.0716 41.661 24.19C39.5846 25.6755 37.924 27.6678 36.8376 29.9768C37.4355 29.3466 38.0897 28.7722 38.792 28.2607C44.3815 24.1822 51.8218 24.8538 55.4041 29.7581C56.6336 31.4536 57.2982 33.4924 57.3038 35.586C58.9398 32.8804 59.5026 29.8747 58.7952 27.269C63.2345 28.6085 67.8641 27.6493 70.8563 24.8282C66.9984 26.5541 61.018 24.6622 56.394 19.9473C52.9386 16.4193 51.0781 12.1573 51.1172 8.64304C50.7387 9.12235 50.405 9.63538 50.1205 10.1756ZM15.1833 30.9929C13.2125 33.9421 10.1259 35.8921 6.59207 36.0232C5.98132 36.0465 5.3697 36.0145 4.76474 35.9275C7.837 34.1997 10.5966 30.4609 11.9255 25.7069C13.7021 19.3499 12.3516 13.2312 8.92363 10.7478C13.4678 12.1157 16.9549 16.5902 17.4058 22.097C19.2953 20.4504 21.9837 19.5868 24.9082 19.6447C23.0956 20.696 21.6599 22.2902 20.8041 24.2015C18.3435 29.7521 21.4822 36.5249 27.8163 39.3285C28.6119 39.6805 29.4382 39.9589 30.2847 40.1602C27.7405 40.3741 25.1838 39.9339 22.8581 38.8814C19.0052 37.1766 16.2545 34.1864 15.1833 30.9929ZM9.16497 21.7649C9.69189 22.0688 10.1168 22.5219 10.3859 23.0671C10.655 23.6122 10.7562 24.2248 10.6768 24.8274C10.5974 25.43 10.3409 25.9955 9.9397 26.4525C9.53853 26.9095 9.01071 27.2373 8.42301 27.3946C7.83531 27.5519 7.21412 27.5316 6.63799 27.3361C6.06186 27.1407 5.55668 26.7791 5.18633 26.2968C4.81597 25.8146 4.59709 25.2335 4.55735 24.627C4.51761 24.0205 4.65881 23.4158 4.96308 22.8895C5.1649 22.5398 5.43372 22.2334 5.75418 21.9876C6.07464 21.7418 6.44045 21.5616 6.83069 21.4571C7.22094 21.3527 7.62796 21.3261 8.02849 21.3789C8.42902 21.4317 8.81521 21.5629 9.16497 21.7649ZM27.281 55.6425C29.0984 56.6852 31.1983 57.1298 33.2828 56.9135C39.3257 56.2673 43.6273 50.1661 42.8905 43.2859C42.7982 42.4222 42.6268 41.5687 42.3785 40.7361C43.8376 42.8307 44.7345 45.2641 44.9836 47.8037C45.4332 51.9842 44.2191 55.855 41.9909 58.3786C45.5285 58.6119 48.7576 60.3064 50.6378 63.2937C50.9634 63.8102 51.2415 64.3552 51.4684 64.922C48.4352 63.1278 43.817 62.6104 39.0288 63.8365C32.6302 65.4804 28.0003 69.7092 27.5606 73.9146C26.4738 69.2958 28.6088 64.0498 33.1528 60.9047C30.7815 60.0906 28.6911 58.1986 27.281 55.6425ZM36.993 68.1984C36.993 67.5905 37.1735 66.9963 37.5116 66.4909C37.8497 65.9855 38.3302 65.5916 38.8924 65.3591C39.4546 65.1266 40.0733 65.0658 40.67 65.1846C41.2668 65.3033 41.8149 65.5962 42.2451 66.0261C42.6752 66.4561 42.968 67.0038 43.0865 67.6001C43.205 68.1963 43.1438 68.8143 42.9106 69.3757C42.6775 69.9372 42.2829 70.417 41.7768 70.7545C41.2707 71.0919 40.6757 71.2718 40.0672 71.2714C39.6633 71.2714 39.2634 71.1919 38.8903 71.0375C38.5172 70.883 38.1782 70.6566 37.8927 70.3712C37.6072 70.0859 37.3808 69.7471 37.2265 69.3742C37.0721 69.0014 36.9927 68.6019 36.993 68.1984ZM61.5933 21.3123C62.2004 21.3523 62.8057 21.2116 63.3327 20.908C63.6827 20.7063 63.9894 20.4378 64.2355 20.1177C64.4816 19.7976 64.6621 19.4323 64.7669 19.0425C64.8716 18.6527 64.8984 18.2461 64.8458 17.846C64.7932 17.4458 64.6623 17.0599 64.4604 16.7104C64.1564 16.1839 63.7029 15.7593 63.1574 15.4903C62.6118 15.2213 61.9986 15.12 61.3954 15.1991C60.7922 15.2782 60.226 15.5342 59.7684 15.9348C59.3109 16.3353 58.9825 16.8624 58.8248 17.4494C58.6671 18.0364 58.6872 18.657 58.8825 19.2326C59.0778 19.8082 59.4396 20.313 59.9221 20.6832C60.4047 21.0534 60.9862 21.2723 61.5933 21.3123Z" fill="white"/>
<path fill-rule="evenodd" clip-rule="evenodd" d="M110.377 56.9999C107.762 56.7268 106.783 54.4163 106.783 51.1991C106.783 44.4506 111.032 33.693 112.555 29.9487C113.59 26.9446 114.625 24.0961 115.28 22.4083L121.653 23.0938L116.479 34.2611C114.899 37.7432 111.316 46.6546 111.316 50.5027C111.316 51.6634 111.644 52.3489 112.405 52.3489C113.661 52.297 115.949 49.3966 117.746 45.0187L119.269 46.1794C119.269 46.1794 115.839 57.1036 111.088 57.1036L110.377 56.9999ZM99.7827 51.9869C99.6269 49.3845 99.5759 46.7849 99.5759 44.1744V41.7822C98.4876 41.5757 97.3993 41.4194 96.311 41.3134C94.7537 44.8506 93.089 48.4416 91.2283 51.9788C89.6737 54.996 88.1701 57.8543 87.2384 59.573L82 58.8511C82 58.8511 84.489 54.899 87.2384 50.3732C89.1054 47.2536 90.8157 44.1331 92.3694 41.0117C91.027 40.9578 89.6228 40.9578 88.275 40.9578H88.2748L89.518 38.2019C90.9168 38.307 92.2674 38.4713 93.5105 38.6707C95.029 35.5869 96.4515 32.4794 97.8926 29.331C98.5666 27.8587 99.2446 26.3776 99.9384 24.8857H103.413C103.427 26.3997 103.433 27.9094 103.44 29.4137L103.44 29.4145L103.44 29.4153L103.44 29.4161L103.44 29.4169L103.44 29.4177V29.4177V29.4178V29.4179V29.4179V29.418C103.456 33.2362 103.471 37.0196 103.62 40.7504C105.641 41.3215 106.782 41.7391 106.782 41.7391L105.486 43.4551L103.724 42.8301C103.88 45.3274 104.138 47.8759 104.5 50.3732L105.915 58.8511L100.368 59.5811C100.199 57.8624 99.9921 55.0041 99.7827 51.9869ZM99.9921 32.321C99.4522 33.6737 98.9088 35.0092 98.3685 36.337C97.9736 37.3073 97.5805 38.2734 97.1917 39.2391L99.6269 39.759C99.649 39.271 99.6704 38.7849 99.6918 38.2999L99.6919 38.2993L99.6919 38.2988L99.6919 38.2977L99.692 38.2965L99.692 38.2951L99.692 38.295L99.6921 38.2948C99.7799 36.3029 99.8669 34.3307 99.9921 32.3237V32.321ZM119.172 48.6028C119.172 52.5892 120.234 56.0667 122.544 56.896C122.944 57.044 123.362 57.1135 123.78 57.1019C126.043 57.1019 128.353 55.1287 129.737 53.1269C130.991 51.2813 132.161 49.3566 133.241 47.3611C133.138 48.1179 133.085 48.8744 133.085 49.6133C133.085 53.1735 134.289 56.2713 136.909 57.0464L137.536 57.1479C139.16 57.1479 140.684 55.3411 142.04 53.5343C141.98 53.9093 141.927 54.2463 141.877 54.5593L141.877 54.5619L141.877 54.562L141.877 54.5621L141.877 54.5624C141.626 56.1434 141.473 57.1105 140.993 59.2648C132.195 62.2584 131.566 67.425 131.566 68.7614V69.1222C131.566 71.3914 132.613 73.4041 135.285 74.2834C135.604 74.3884 135.938 74.4451 136.274 74.4518C140.044 74.4518 143.133 67.1737 145.176 60.6707C146.616 59.2603 147.927 57.7344 149.097 56.1114C149.036 56.4419 148.974 56.7728 148.912 57.1041L152.183 57.0542C156.452 47.7242 159.481 43.5673 161.524 41.7922C161.065 43.5125 160.696 45.2559 160.419 47.0152L164.393 46.3036C164.852 44.6834 165.355 43.0605 165.957 41.4377C166.147 40.9002 166.249 40.3353 166.26 39.765C166.26 38.2419 165.355 37.2782 163.896 37.2782C163.041 37.2782 161.983 37.6353 160.875 38.3942C159.126 39.5601 157.213 41.6399 155.402 45.1902C156.155 42.6036 156.96 39.9672 157.917 37.4305H153.082C151.945 41.5858 151.061 45.7815 150.24 50.0332C149.589 51.1163 148.878 52.1647 148.11 53.1735L146.754 54.8787L147.644 51.2143C148.273 48.5816 150 40.376 150.627 37.2782H144.712L144.5 38.5692C144.113 38.1757 143.649 37.8633 143.137 37.6506C142.624 37.438 142.073 37.3295 141.517 37.3316H141.308C137.316 37.5232 134.667 41.2729 133.607 45.474L132.332 44.4076C131.544 46.1838 130.617 47.8663 129.563 49.4321C127.769 52.0831 126.095 53.2985 124.899 53.2985C123.56 53.2985 122.683 51.8629 122.683 49.3206C122.717 48.0126 122.888 46.7149 123.19 45.4571H129.563C129.981 43.6953 130.214 41.8775 130.254 40.0465C130.254 37.284 129.469 34.799 126.7 34.799H126.423C121.76 35.0763 119.172 42.4201 119.172 48.6028ZM127.3 39.446V40.1638C127.314 41.0187 127.237 41.8721 127.068 42.7032H123.974C124.852 40.1094 126.007 38.1763 126.7 38.1763C127.023 38.1763 127.253 38.5623 127.3 39.446ZM138.951 66.5322C139.466 65.182 139.902 63.8042 140.258 62.4054C138.36 63.3863 135.024 65.2947 135.024 67.719C135.033 68.2684 135.195 68.8048 135.493 69.2692C135.576 69.4347 135.702 69.575 135.86 69.6748C136.017 69.7747 136.199 69.8303 136.386 69.8358C137.118 69.8439 138.007 68.9164 138.951 66.5402V66.5322ZM141.36 50.228C142.615 48.4212 143.258 45.8392 143.258 45.8392L141.479 45.7377C142.054 44.861 142.314 43.3642 142.314 42.0732V41.4531C142.263 40.6807 141.948 40.3172 141.582 40.3172C140.484 40.3172 138.544 42.8483 137.918 45.9969C137.604 47.4396 137.428 48.908 137.392 50.383C137.392 51.9867 137.761 52.7565 138.441 52.7565C139.122 52.7565 140.155 51.8852 141.36 50.2334V50.228ZM170.198 57.1035C169.951 57.0947 169.705 57.0579 169.466 56.9938C167.101 56.451 166.258 54.0633 166.258 50.8599C166.258 46.4051 167.891 40.4315 169.411 35.7067H174.874L173.635 38.5191C172.398 42.2118 170.933 48.295 170.933 51.3887C170.919 51.8471 170.976 52.305 171.103 52.7471H171.272C172.339 52.7471 174.189 50.5224 176 46.9929L176.059 46.8832C176.221 46.5448 176.382 46.2078 176.544 45.8581C177.468 41.5322 180.097 37.5311 184.156 37.3355H184.359C184.918 37.3228 185.472 37.433 185.982 37.6583C186.492 37.8836 186.945 38.2182 187.308 38.6379L187.713 37.2782H192.595C191.015 40.8495 189.646 44.4729 188.883 48.2448C188.669 49.2548 188.55 50.2819 188.527 51.3134C188.527 52.5195 188.832 53.0717 189.341 53.0717C190.51 53.0717 192.748 50.0552 194.578 45.5774L195.999 46.6845C195.999 46.6845 192.798 57.1041 188.364 57.1041L187.713 56.9999C186.036 56.5988 185.223 55.0905 184.967 52.9779C183.651 54.7884 182.121 56.6483 180.444 56.6483L179.886 56.5493C177.865 55.9489 176.711 53.9189 176.323 51.3693C176.146 51.7046 175.964 52.0374 175.776 52.3674L175.72 52.5839V52.4771C174.367 54.7579 172.622 56.8194 170.65 57.0388H170.481C170.481 57.0458 170.48 57.0527 170.477 57.0592C170.476 57.0612 170.475 57.0631 170.474 57.065C170.472 57.0692 170.469 57.0731 170.465 57.0766C170.462 57.0793 170.459 57.0818 170.456 57.0839C170.453 57.0855 170.45 57.087 170.447 57.0882C170.445 57.0891 170.442 57.0898 170.44 57.0904C170.435 57.0916 170.431 57.0922 170.426 57.0922L170.198 57.1035ZM169.885 33.8093L170.805 31.9687H176.327L175.406 33.8093H169.885ZM183.318 51.0301C183.268 51.1098 183.232 51.1675 183.137 51.1675V51.1571C182.427 51.962 181.766 52.3632 181.308 52.3736C180.699 52.3736 180.291 51.6729 180.291 50.1099C180.291 49.055 180.494 47.6457 180.849 45.7858C181.46 42.7172 183.356 40.2504 184.409 40.2504C184.765 40.2504 185.07 40.6046 185.12 41.3575V41.9618C185.12 43.22 184.867 44.6787 184.306 45.5331L185.528 45.6321L185.325 46.8408C185.325 46.8408 184.459 49.5629 183.443 50.8654C183.385 50.9231 183.348 50.9808 183.318 51.0301Z" fill="white"/>
<path d="M129.057 22.4056H131.203C131.839 22.4056 132.304 22.5771 132.598 22.9202C132.893 23.2632 133.044 23.7682 133.044 24.4352C133.072 24.9733 132.913 25.5046 132.593 25.9383C132.426 26.1289 132.217 26.2782 131.982 26.3745C131.748 26.4708 131.494 26.5115 131.241 26.4933H130.549V28.5323H129.061L129.057 22.4056ZM130.95 25.3356C131.03 25.3408 131.11 25.3258 131.182 25.2921C131.255 25.2584 131.317 25.207 131.365 25.1426C131.475 24.9342 131.523 24.6986 131.503 24.4638C131.523 24.2217 131.477 23.9788 131.37 23.761C131.327 23.6969 131.269 23.6449 131.2 23.6102C131.132 23.5756 131.055 23.5594 130.979 23.5633H130.545V25.3356H130.95Z" fill="white"/>
<path d="M135.684 22.4048H137.92C139.16 22.4048 139.779 23.0138 139.778 24.2318C139.784 24.5255 139.733 24.8177 139.628 25.0917C139.525 25.3331 139.35 25.5369 139.127 25.6753C139.301 25.7889 139.433 25.9562 139.504 26.1518C139.579 26.3601 139.616 26.5804 139.613 26.8021V28.5386H138.159V26.9045C138.161 26.7539 138.135 26.6042 138.08 26.4638C138.048 26.397 137.995 26.3422 137.929 26.3075C137.864 26.2728 137.789 26.2599 137.715 26.2709H137.145V28.5386H135.693L135.684 22.4048ZM137.753 25.1703C137.821 25.172 137.889 25.1567 137.95 25.1259C138.01 25.0952 138.063 25.0499 138.101 24.9941C138.205 24.8065 138.249 24.5926 138.23 24.3795C138.252 24.1565 138.206 23.9322 138.097 23.7363C138.054 23.6792 137.997 23.6335 137.932 23.6032C137.868 23.5729 137.796 23.5589 137.725 23.5624H137.136V25.1703H137.753Z" fill="white"/>
<path d="M144.758 28.6596C144.433 28.6626 144.111 28.6119 143.804 28.5095C143.52 28.4107 143.266 28.2429 143.065 28.0212C142.842 27.7703 142.679 27.4723 142.588 27.1494C142.469 26.723 142.414 26.2816 142.423 25.8392V25.096C142.413 24.6532 142.47 24.2115 142.592 23.7859C142.685 23.4638 142.848 23.1661 143.069 22.914C143.274 22.6971 143.528 22.5335 143.811 22.4376C144.436 22.2374 145.108 22.2374 145.733 22.4376C146.014 22.5324 146.268 22.6962 146.47 22.914C146.69 23.1665 146.853 23.464 146.946 23.7859C147.067 24.2118 147.123 24.6534 147.113 25.096V25.8392C147.122 26.2814 147.068 26.7227 146.951 27.1494C146.86 27.472 146.697 27.77 146.474 28.0212C146.275 28.2437 146.022 28.4118 145.74 28.5095C145.423 28.6145 145.091 28.6652 144.758 28.6596ZM144.758 23.4333C144.617 23.428 144.477 23.4645 144.357 23.5381C144.248 23.6163 144.165 23.7249 144.118 23.8502C144.057 24.0173 144.019 24.192 144.004 24.3695C143.98 24.6141 143.969 24.8598 143.971 25.1055V25.8202C143.969 26.0651 143.98 26.31 144.004 26.5538C144.018 26.7313 144.057 26.906 144.118 27.0731C144.165 27.1985 144.248 27.3071 144.357 27.3852C144.471 27.4614 144.606 27.499 144.743 27.4924C144.885 27.4995 145.025 27.462 145.144 27.3852C145.253 27.3075 145.336 27.1988 145.382 27.0731C145.444 26.9062 145.482 26.7314 145.494 26.5538C145.511 26.3466 145.521 26.1012 145.521 25.8202V25.1055C145.538 24.6806 145.49 24.2556 145.377 23.8454C145.339 23.7169 145.257 23.6057 145.146 23.5305C145.035 23.4554 144.901 23.4211 144.767 23.4333H144.758Z" fill="white"/>
<path d="M149.75 28.5317V22.405H151.791C152.121 22.401 152.45 22.4476 152.766 22.5431C153.053 22.6296 153.313 22.7888 153.52 23.0053C153.741 23.2514 153.903 23.5435 153.997 23.8604C154.122 24.2824 154.181 24.7211 154.171 25.161V25.7756C154.182 26.2159 154.121 26.6551 153.992 27.0762C153.893 27.3951 153.722 27.6875 153.494 27.9314C153.285 28.1467 153.026 28.3064 152.74 28.3959C152.431 28.4887 152.109 28.5345 151.786 28.5317H149.75ZM151.231 27.3406H151.608C151.75 27.3425 151.892 27.3241 152.03 27.2859C152.154 27.2475 152.263 27.1718 152.342 27.0691C152.44 26.9369 152.507 26.7848 152.54 26.6236C152.592 26.3763 152.616 26.1237 152.609 25.8709V25.0801C152.614 24.8292 152.592 24.5784 152.545 24.3321C152.515 24.1701 152.451 24.0164 152.356 23.8819C152.279 23.7782 152.172 23.7008 152.049 23.6603C151.912 23.6195 151.769 23.5995 151.627 23.6008H151.231V27.3406Z" fill="white"/>
<path d="M159.093 28.6601C158.76 28.6667 158.428 28.6217 158.108 28.5267C157.836 28.4467 157.589 28.2963 157.393 28.0908C157.189 27.8637 157.041 27.592 156.961 27.2975C156.855 26.9033 156.805 26.4958 156.813 26.0874V22.4048H158.359V25.9421C158.359 26.2232 158.359 26.4614 158.382 26.6568C158.391 26.8198 158.425 26.9806 158.483 27.1332C158.524 27.246 158.602 27.3416 158.704 27.4047C158.822 27.4655 158.954 27.4943 159.086 27.4881C159.218 27.4936 159.35 27.4649 159.467 27.4047C159.569 27.3415 159.646 27.2458 159.687 27.1332C159.745 26.9804 159.779 26.8198 159.789 26.6568C159.804 26.459 159.811 26.2208 159.811 25.9421V22.4048H161.356V26.0612C161.365 26.4791 161.319 26.8963 161.22 27.3023C161.145 27.5975 161.001 27.8709 160.8 28.1003C160.606 28.3072 160.359 28.4564 160.085 28.5314C159.762 28.6214 159.428 28.6647 159.093 28.6601Z" fill="white"/>
<path d="M163.998 27.4383L166.363 23.5984H164.062V22.4074H168.028V23.4793L165.701 27.3287H168.085V28.5198H163.998V27.4383Z" fill="white"/>
<path d="M170.723 22.4048H172.268V28.5315H170.723V22.4048Z" fill="white"/>
<path d="M174.906 22.4048H176.13L177.832 25.7397V22.4048H179.263V28.5315H178.039L176.337 25.3252V28.5315H174.906V22.4048Z" fill="white"/>
<path d="M181.904 28.5317V22.405H183.945C184.276 22.401 184.605 22.4476 184.921 22.5431C185.207 22.629 185.467 22.7873 185.674 23.0029C185.895 23.249 186.058 23.5411 186.151 23.8581C186.276 24.28 186.335 24.7187 186.325 25.1587V25.7732C186.336 26.2136 186.275 26.6527 186.146 27.0739C186.046 27.3923 185.876 27.6845 185.648 27.929C185.44 28.1443 185.181 28.304 184.894 28.3935C184.585 28.4864 184.264 28.5321 183.941 28.5293L181.904 28.5317ZM183.385 27.3406H183.762C183.904 27.3426 184.047 27.3241 184.184 27.2859C184.308 27.2475 184.417 27.1718 184.496 27.0691C184.594 26.9369 184.662 26.7848 184.694 26.6236C184.747 26.3763 184.77 26.1237 184.763 25.8709V25.0801C184.768 24.8292 184.747 24.5784 184.699 24.3321C184.67 24.1701 184.605 24.0164 184.511 23.8819C184.433 23.7782 184.326 23.7008 184.203 23.6603C184.066 23.6195 183.924 23.5995 183.781 23.6008H183.385V27.3406Z" fill="white"/>
<path d="M191.296 28.6596C190.972 28.6626 190.65 28.6119 190.343 28.5095C190.059 28.4107 189.805 28.2429 189.603 28.0212C189.381 27.7697 189.218 27.4718 189.127 27.1494C189.008 26.723 188.952 26.2816 188.962 25.8392V25.096C188.953 24.6533 189.01 24.2117 189.131 23.7859C189.225 23.4642 189.388 23.1668 189.608 22.914C189.811 22.6967 190.065 22.533 190.347 22.4376C190.972 22.2374 191.644 22.2374 192.269 22.4376C192.551 22.5324 192.804 22.6962 193.006 22.914C193.227 23.1666 193.389 23.4641 193.483 23.7859C193.602 24.2122 193.657 24.6536 193.648 25.096V25.8392C193.656 26.2812 193.602 26.7223 193.488 27.1494C193.399 27.4706 193.24 27.7682 193.023 28.0212C192.822 28.2433 192.569 28.4113 192.286 28.5095C191.967 28.6153 191.632 28.6661 191.296 28.6596ZM191.296 23.4333C191.155 23.428 191.016 23.4645 190.896 23.5381C190.787 23.6163 190.704 23.7249 190.657 23.8502C190.596 24.0173 190.558 24.192 190.543 24.3695C190.519 24.6141 190.508 24.8598 190.51 25.1055V25.8202C190.508 26.0651 190.519 26.31 190.543 26.5538C190.557 26.7313 190.596 26.906 190.657 27.0731C190.704 27.1985 190.787 27.3071 190.896 27.3852C191.01 27.4608 191.145 27.4983 191.282 27.4924C191.42 27.5033 191.557 27.468 191.673 27.3921C191.788 27.3161 191.875 27.2039 191.919 27.0731C191.98 26.9061 192.017 26.7312 192.028 26.5538C192.048 26.3466 192.055 26.1012 192.055 25.8202V25.1055C192.072 24.6808 192.024 24.256 191.914 23.8454C191.875 23.7178 191.793 23.6074 191.683 23.5325C191.572 23.4575 191.439 23.4225 191.306 23.4333H191.296Z" fill="white"/>
</svg>
