<svg width="88" height="110" viewBox="0 0 88 110" fill="none" xmlns="http://www.w3.org/2000/svg">
<path fill-rule="evenodd" clip-rule="evenodd" d="M53.8996 14.0127C52.506 13.2132 50.8958 12.8722 49.2973 13.0381C44.6636 13.5337 41.3651 18.2121 41.9301 23.4878C42.0004 24.1527 42.1318 24.8097 42.3227 25.4505C41.2043 23.8442 40.5166 21.9784 40.325 20.031C39.7915 15.0697 42.3137 10.6757 46.0453 9.8029C46.2837 9.74623 46.5255 9.70473 46.7691 9.67865C46.8516 9.66966 46.9355 9.66368 47.0194 9.65769C49.7799 9.47354 52.365 11.2281 53.8996 14.0127Z" fill="white"/>
<path fill-rule="evenodd" clip-rule="evenodd" d="M48.9717 10.2536C44.3574 13.152 38.5427 12.2088 35.9846 8.14419C35.7345 7.74779 35.5213 7.32935 35.3477 6.89412C37.6735 8.27144 41.2148 8.66817 44.8864 7.7265C49.7929 6.46744 53.3446 3.22474 53.6818 0C54.5465 3.67686 52.7452 7.8822 48.9717 10.2536Z" fill="white"/>
<path fill-rule="evenodd" clip-rule="evenodd" d="M46.452 4.38368C46.4518 4.84974 46.3131 5.30524 46.0537 5.69259C45.7942 6.07993 45.4256 6.38173 44.9945 6.55981C44.5634 6.73789 44.0891 6.78425 43.6316 6.69304C43.174 6.60182 42.7539 6.37713 42.4242 6.04737C42.0945 5.71761 41.8701 5.29759 41.7794 4.84043C41.6887 4.38327 41.7357 3.9095 41.9145 3.47903C42.0933 3.04857 42.3959 2.68074 42.784 2.42205C43.172 2.16337 43.6282 2.02546 44.0947 2.02576C44.4045 2.02576 44.7113 2.08677 44.9975 2.2053C45.2837 2.32384 45.5437 2.49757 45.7627 2.71656C45.9816 2.93555 46.1552 3.19551 46.2735 3.48157C46.3918 3.76763 46.4524 4.07417 46.452 4.38368Z" fill="white"/>
<path fill-rule="evenodd" clip-rule="evenodd" d="M30.8825 29.3909C30.8864 30.9961 31.3955 32.5594 32.3377 33.8597C35.0847 37.6204 40.7899 38.1339 45.076 35.008C45.6149 34.6157 46.1166 34.1747 46.5746 33.6905C45.7416 35.4615 44.4683 36.9898 42.876 38.1294C38.8417 41.0712 33.7719 41.0862 31.1478 38.2941C30.9799 38.1152 30.8237 37.9256 30.6802 37.7267C30.6307 37.6593 30.5828 37.5905 30.5303 37.5216C29.0062 35.2235 29.237 32.1096 30.8825 29.3909Z" fill="white"/>
<path fill-rule="evenodd" clip-rule="evenodd" d="M30.0789 35.5289C34.9 38.0739 36.9891 43.5743 34.7457 47.82C34.5264 48.234 34.2701 48.6274 33.9799 48.9952C34.0098 46.3005 32.5846 43.0323 29.9336 40.3256C26.3878 36.7116 21.802 35.2609 18.8438 36.5828C21.5937 33.9944 26.1406 33.4509 30.0789 35.5289Z" fill="white"/>
<path fill-rule="evenodd" clip-rule="evenodd" d="M26.254 40.6461C26.658 40.413 27.1221 40.3049 27.5877 40.3353C28.0532 40.3657 28.4993 40.5334 28.8694 40.8171C29.2396 41.1008 29.5172 41.4878 29.6672 41.9291C29.8172 42.3704 29.8328 42.8463 29.7121 43.2965C29.5914 43.7467 29.3397 44.151 28.9889 44.4583C28.6382 44.7656 28.2041 44.9621 27.7415 45.0229C27.2789 45.0838 26.8087 45.0062 26.3903 44.8001C25.9719 44.5939 25.624 44.2685 25.3908 43.8648C25.2357 43.5969 25.135 43.3011 25.0945 42.9943C25.054 42.6875 25.0744 42.3757 25.1545 42.0767C25.2347 41.7778 25.3731 41.4976 25.5617 41.2521C25.7504 41.0066 25.9856 40.8007 26.254 40.6461Z" fill="white"/>
<path fill-rule="evenodd" clip-rule="evenodd" d="M55.7174 41.6192C57.1073 40.813 58.2082 39.5906 58.8645 38.125C60.7513 33.8688 58.3445 28.6754 53.4889 26.5255C52.8793 26.2558 52.2462 26.0423 51.5977 25.8878C53.5486 25.723 55.5093 26.0606 57.2924 26.8684C61.8602 28.8879 64.4079 33.2669 63.2989 36.9333C63.2287 37.1676 63.1436 37.3971 63.0441 37.6205C63.0112 37.6983 62.9752 37.7702 62.9377 37.848C61.7134 40.3197 58.899 41.6776 55.7174 41.6192Z" fill="white"/>
<path fill-rule="evenodd" clip-rule="evenodd" d="M61.4418 39.2343C61.235 33.7924 64.9606 29.2337 69.7637 29.054C70.232 29.0359 70.7011 29.061 71.1649 29.1289C68.809 30.4523 66.693 33.3208 65.6739 36.9647C64.3117 41.8392 65.3487 46.5326 67.9758 48.4369C64.3551 47.3455 61.6111 43.6836 61.4418 39.2343Z" fill="white"/>
<path fill-rule="evenodd" clip-rule="evenodd" d="M67.7902 39.9872C67.3862 39.754 67.0605 39.4064 66.8542 38.9883C66.648 38.5702 66.5706 38.1004 66.6316 37.6384C66.6927 37.1763 66.8896 36.7427 67.1974 36.3924C67.5051 36.0421 67.91 35.7908 68.3607 35.6704C68.8115 35.55 69.2878 35.5658 69.7295 35.7158C70.1713 35.8659 70.5585 36.1434 70.8424 36.5134C71.1262 36.8833 71.2938 37.329 71.324 37.7941C71.3543 38.2593 71.2457 38.7229 71.0122 39.1264C70.8573 39.3943 70.6511 39.6292 70.4053 39.8175C70.1595 40.0058 69.879 40.1439 69.5798 40.2238C69.2805 40.3038 68.9685 40.324 68.6614 40.2834C68.3543 40.2428 68.0583 40.1422 67.7902 39.9872Z" fill="white"/>
<path fill-rule="evenodd" clip-rule="evenodd" d="M57.2769 7.80278C55.851 10.4996 56.1736 13.7026 57.8343 16.333C55.5611 16.1925 53.0174 16.9245 50.7895 18.5491C49.1973 19.6882 47.9239 21.2159 47.0909 22.9865C47.5494 22.5032 48.051 22.0627 48.5895 21.6705C52.8756 18.5431 58.5809 19.0581 61.3278 22.8188C62.2707 24.1189 62.7803 25.6822 62.7845 27.2876C64.0391 25.2129 64.4707 22.908 63.9281 20.9099C67.3324 21.9374 70.8828 21.2019 73.1773 19.0385C70.2191 20.3619 65.6333 18.9112 62.0875 15.2957C59.438 12.5905 58.0113 9.32233 58.0412 6.62756C57.751 6.99511 57.4952 7.3885 57.2769 7.80278ZM30.4873 23.7665C28.9761 26.0275 26.6096 27.5224 23.9001 27.6229C23.4318 27.6407 22.9628 27.6162 22.4989 27.5495C24.8548 26.2246 26.9708 23.3577 27.9899 19.7122C29.3521 14.8377 28.3166 10.1458 25.688 8.2415C29.1723 9.29035 31.8461 12.7211 32.1922 16.9435C33.641 15.6813 35.7021 15.0194 37.9442 15.0637C36.5543 15.8699 35.4534 17.0923 34.7971 18.5579C32.9103 22.8141 35.3171 28.0076 40.1742 30.1574C40.7843 30.4273 41.4178 30.6408 42.0669 30.7952C40.116 30.9592 38.1555 30.6216 36.3722 29.8146C33.4181 28.5075 31.309 26.2149 30.4873 23.7665ZM25.8722 16.6895C26.2762 16.9225 26.602 17.27 26.8084 17.688C27.0147 18.106 27.0924 18.5758 27.0315 19.0378C26.9706 19.4999 26.7739 19.9336 26.4663 20.284C26.1586 20.6344 25.7539 20.8858 25.3032 21.0064C24.8526 21.127 24.3763 21.1114 23.9345 20.9616C23.4927 20.8117 23.1053 20.5344 22.8213 20.1646C22.5373 19.7948 22.3695 19.3492 22.339 18.8842C22.3086 18.4191 22.4168 17.9554 22.6501 17.5518C22.8049 17.2837 23.011 17.0487 23.2568 16.8603C23.5025 16.6718 23.783 16.5336 24.0822 16.4535C24.3815 16.3734 24.6936 16.353 25.0007 16.3935C25.3079 16.434 25.604 16.5346 25.8722 16.6895ZM39.7646 42.6671C41.1582 43.4666 42.7684 43.8076 44.3668 43.6417C49.0006 43.1462 52.299 38.4678 51.7341 33.192C51.6633 32.5297 51.5318 31.8752 51.3414 31.2368C52.4603 32.8429 53.1481 34.7089 53.3391 36.6563C53.6838 39.8619 52.7529 42.8301 51.0443 44.7652C53.7567 44.9443 56.2326 46.2435 57.6742 48.5342C57.924 48.9302 58.1371 49.3481 58.3111 49.7827C55.9853 48.4069 52.444 48.0102 48.7724 48.9503C43.8659 50.2109 40.3156 53.4536 39.9785 56.6783C39.1451 53.1365 40.7823 49.1138 44.2668 46.7021C42.4486 46.0778 40.8458 44.627 39.7646 42.6671ZM47.2103 52.2951C47.2103 51.829 47.3487 51.3733 47.6079 50.9858C47.8672 50.5982 48.2357 50.2962 48.6668 50.1179C49.0979 49.9396 49.5722 49.893 50.0298 49.9841C50.4875 50.0751 50.9078 50.2997 51.2376 50.6294C51.5674 50.9591 51.792 51.3791 51.8828 51.8363C51.9736 52.2935 51.9267 52.7673 51.748 53.1979C51.5692 53.6284 51.2666 53.9964 50.8785 54.2551C50.4904 54.5139 50.0342 54.6518 49.5676 54.6515C49.2579 54.6515 48.9513 54.5905 48.6651 54.4721C48.379 54.3537 48.1191 54.1801 47.9002 53.9612C47.6813 53.7424 47.5077 53.4826 47.3893 53.1967C47.2709 52.9109 47.2101 52.6045 47.2103 52.2951ZM66.074 16.3425C66.5395 16.3732 67.0036 16.2653 67.4078 16.0324C67.6761 15.8778 67.9114 15.6719 68.1 15.4265C68.2887 15.181 68.4272 14.9009 68.5075 14.602C68.5878 14.3031 68.6083 13.9913 68.568 13.6845C68.5277 13.3776 68.4273 13.0817 68.2725 12.8137C68.0394 12.41 67.6916 12.0844 67.2733 11.8781C66.855 11.6719 66.3848 11.5941 65.9222 11.6548C65.4597 11.7155 65.0255 11.9118 64.6746 12.2189C64.3238 12.5261 64.072 12.9303 63.951 13.3804C63.8301 13.8305 63.8455 14.3063 63.9953 14.7477C64.1451 15.1891 64.4225 15.5762 64.7925 15.8601C65.1625 16.1439 65.6085 16.3118 66.074 16.3425Z" fill="white"/>
<path fill-rule="evenodd" clip-rule="evenodd" d="M21.7598 96.6177C19.7545 96.4083 19.0039 94.6366 19.0039 92.1696C19.0039 86.9949 22.2616 78.7458 23.4297 75.8747C24.2236 73.5711 25.0175 71.3868 25.5193 70.0926L30.4059 70.6182L26.4387 79.1814C25.2273 81.8515 22.4801 88.6849 22.4801 91.6356C22.4801 92.5256 22.731 93.0513 23.3151 93.0513C24.2777 93.0115 26.032 90.7875 27.4099 87.4305L28.578 88.3205C28.578 88.3205 25.9476 96.6973 22.3049 96.6973L21.7598 96.6177ZM13.6359 92.7737C13.5165 90.7782 13.4774 88.7848 13.4774 86.7831V84.9487C12.6428 84.7903 11.8083 84.6705 10.9738 84.5892C9.77963 87.3016 8.50312 90.0552 7.07633 92.7675C5.88424 95.0812 4.73128 97.2729 4.01685 98.5908L0 98.0372C0 98.0372 1.90857 95.0068 4.01685 91.5363C5.44845 89.1442 6.75995 86.7514 7.95135 84.3579C6.92194 84.3166 5.84517 84.3166 4.81165 84.3166H4.81157L5.76483 82.2033C6.8375 82.2839 7.87311 82.4099 8.82637 82.5627C9.99073 80.1981 11.0815 77.8152 12.1866 75.401L12.1866 75.4009C12.7034 74.272 13.2233 73.1363 13.7553 71.9923H16.4195C16.4305 73.1542 16.4353 74.3129 16.4401 75.4673V75.4673V75.4673V75.4674V75.4674V75.4674C16.4523 78.3953 16.4643 81.2966 16.578 84.1575C18.1283 84.5954 19.0034 84.9156 19.0034 84.9156L18.0089 86.2315L16.6583 85.7523C16.7777 87.6672 16.9754 89.6214 17.2533 91.5363L18.3383 98.0372L14.0847 98.597C13.955 97.2791 13.7965 95.0873 13.6359 92.7737ZM12.5515 80.7731L12.5515 80.7733L12.5514 80.7735C12.2486 81.5175 11.9472 82.2582 11.6491 82.9986L13.5165 83.3973C13.5334 83.0218 13.5499 82.6477 13.5664 82.2746C13.6338 80.7472 13.7005 79.2349 13.7965 77.6959V77.6938C13.3827 78.7305 12.9662 79.7541 12.552 80.7718L12.5517 80.7726L12.5515 80.7731ZM28.5048 90.1788C28.5048 93.2356 29.3189 95.9021 31.0903 96.538C31.3971 96.6515 31.7173 96.7048 32.0383 96.6959C33.773 96.6959 35.5444 95.1828 36.6061 93.6479C37.5672 92.2334 38.4638 90.7582 39.2918 89.2288C39.2125 89.8084 39.1724 90.3877 39.1724 90.9536C39.1724 93.6836 40.0958 96.059 42.1047 96.6534L42.5851 96.7313C43.8308 96.7313 44.9996 95.3458 46.0394 93.9603C45.9931 94.2474 45.9523 94.5055 45.9143 94.7452L45.9138 94.7482L45.9138 94.7483C45.7219 95.9608 45.6046 96.7024 45.2367 98.3545C38.4903 100.65 38.0078 104.612 38.0078 105.637V105.913C38.0078 107.653 38.8105 109.197 40.859 109.871C41.104 109.951 41.3599 109.995 41.6181 110C44.5088 110 46.8775 104.419 48.4435 99.4326C49.5479 98.351 50.5534 97.181 51.4505 95.9364C51.4034 96.1899 51.356 96.4436 51.3086 96.6977L53.8167 96.6594C57.0904 89.5051 59.4127 86.3175 60.9796 84.9563C60.6275 86.2755 60.3447 87.6123 60.1322 88.9614L63.1799 88.4157C63.5317 87.1733 63.9174 85.9289 64.3791 84.6845C64.5247 84.2724 64.603 83.8392 64.6109 83.4018C64.6109 82.234 63.9174 81.495 62.7982 81.495C62.1427 81.495 61.3313 81.7688 60.4819 82.3507C59.1409 83.2448 57.6739 84.8396 56.285 87.5619C56.8625 85.5786 57.4801 83.5569 58.2136 81.6118H54.5062C53.6347 84.7981 52.9562 88.0154 52.3267 91.2756C51.8277 92.1062 51.2826 92.9101 50.6936 93.6836L49.6538 94.9912L50.3359 92.1813C50.8184 90.1625 52.1432 83.8704 52.6236 81.495H48.0878L47.9256 82.4849C47.6287 82.1832 47.2731 81.9436 46.88 81.7806C46.4869 81.6175 46.0645 81.5343 45.638 81.536H45.4779C42.4171 81.6828 40.386 84.5578 39.5728 87.779L38.5957 86.9618C37.9918 88.3239 37.2808 89.614 36.4722 90.8147C35.097 92.8475 33.8134 93.7794 32.8965 93.7794C31.8696 93.7794 31.1966 92.6786 31.1966 90.7292C31.2232 89.7262 31.3537 88.7311 31.5854 87.7666H36.4722C36.7933 86.4156 36.9714 85.0218 37.0022 83.6177C37.0022 81.4995 36.4007 79.5939 34.2773 79.5939H34.0646C30.4888 79.8066 28.5048 85.4378 28.5048 90.1788ZM34.7375 83.1572V83.7077C34.7484 84.3632 34.6886 85.0176 34.5597 85.6549H32.1869C32.8598 83.666 33.7455 82.1836 34.2773 82.1836C34.5248 82.1836 34.7009 82.4797 34.7375 83.1572ZM43.6707 103.927C44.0651 102.892 44.3998 101.835 44.6731 100.763C43.2173 101.515 40.6593 102.978 40.6593 104.837C40.6661 105.259 40.7906 105.67 41.0191 106.026C41.0823 106.153 41.1793 106.26 41.2999 106.337C41.4205 106.414 41.56 106.456 41.7033 106.46C42.2648 106.467 42.947 105.755 43.6707 103.933V103.927ZM45.5174 91.425C46.4803 90.0395 46.9732 88.0597 46.9732 88.0597L45.6089 87.9818C46.0498 87.3095 46.2494 86.1618 46.2494 85.1718V84.6964C46.2099 84.104 45.9687 83.8253 45.6879 83.8253C44.8457 83.8253 43.3587 85.7662 42.8783 88.1806C42.6377 89.2868 42.5026 90.4128 42.4749 91.5439C42.4749 92.7736 42.7577 93.3639 43.2797 93.3639C43.8017 93.3639 44.594 92.6957 45.5174 91.4291V91.425ZM67.6312 96.6971C67.4413 96.6904 67.2528 96.6622 67.0697 96.613C65.2558 96.1968 64.6093 94.3659 64.6093 91.9095C64.6093 88.4935 65.8619 83.9129 67.0273 80.2899H71.2167L70.2661 82.4465C69.3177 85.2781 68.1948 89.9427 68.1948 92.315C68.1838 92.6665 68.2275 93.0176 68.3246 93.3566H68.4543C69.2729 93.3566 70.691 91.6507 72.08 88.9442L72.1248 88.8601C72.2496 88.5998 72.3738 88.3405 72.498 88.0714C73.2071 84.7553 75.2228 81.6888 78.335 81.5389H78.4904C78.9186 81.5292 79.3436 81.6137 79.7347 81.7864C80.1257 81.9592 80.4731 82.2158 80.7516 82.5376L81.0626 81.495H84.8057C83.5943 84.2335 82.5445 87.012 81.959 89.9043C81.7954 90.6787 81.7042 91.4664 81.6864 92.2573C81.6864 93.1821 81.9206 93.6056 82.3103 93.6056C83.2067 93.6056 84.9228 91.2925 86.3259 87.8589L87.4162 88.7078C87.4162 88.7078 84.9611 96.6977 81.5612 96.6977L81.0626 96.6178C79.7765 96.3101 79.1526 95.1536 78.9568 93.5337C77.9473 94.9219 76.7743 96.3481 75.4882 96.3481L75.0602 96.2722C73.51 95.8118 72.6257 94.2547 72.328 92.2991C72.1923 92.5566 72.0522 92.8121 71.9078 93.0655L71.8653 93.2315V93.1496C70.8275 94.8985 69.4899 96.4793 67.9779 96.6475H67.8481C67.8481 96.6529 67.847 96.6582 67.8449 96.6632C67.8428 96.6682 67.8396 96.6727 67.8357 96.6765C67.834 96.6781 67.8322 96.6796 67.8303 96.6809C67.8277 96.6827 67.8249 96.6842 67.8219 96.6854C67.8167 96.6874 67.8112 96.6885 67.8056 96.6885L67.6312 96.6971ZM67.3905 78.835L68.0962 77.4236H72.3303L71.6246 78.835H67.3905ZM77.6918 92.04C77.6536 92.1012 77.626 92.1454 77.5536 92.1454V92.1374C77.0085 92.7547 76.5017 93.0623 76.1505 93.0703C75.6841 93.0703 75.3711 92.5329 75.3711 91.3345C75.3711 90.5255 75.5266 89.4449 75.7992 88.0187C76.2676 85.6657 77.7212 83.7741 78.5288 83.7741C78.8013 83.7741 79.0355 84.0457 79.0739 84.623V85.0864C79.0739 86.0512 78.8801 87.1698 78.45 87.8249L79.3868 87.9008L79.2314 88.8277C79.2314 88.8277 78.5671 90.915 77.7878 91.9137C77.7431 91.958 77.7154 92.0022 77.6918 92.04Z" fill="white"/>
<path d="M36.084 70.0906H37.7296C38.2172 70.0906 38.5737 70.2221 38.7992 70.4851C39.026 70.7482 39.1412 71.1354 39.1412 71.6468C39.1633 72.0594 39.0411 72.4669 38.7956 72.7994C38.6675 72.9456 38.5072 73.0601 38.3273 73.1339C38.1474 73.2078 37.9528 73.239 37.7588 73.225H37.2286V74.7886H36.0876L36.084 70.0906ZM37.5358 72.3373C37.597 72.3413 37.6582 72.3298 37.7138 72.3039C37.7694 72.2781 37.8176 72.2387 37.8539 72.1893C37.9383 72.0295 37.9751 71.8488 37.96 71.6688C37.9756 71.4832 37.9402 71.2969 37.8576 71.1299C37.8252 71.0807 37.7804 71.0409 37.7278 71.0143C37.6752 70.9877 37.6166 70.9753 37.5577 70.9783H37.2249V72.3373H37.5358Z" fill="white"/>
<path d="M41.166 70.0899H42.8811C43.8319 70.0899 44.3067 70.5569 44.3055 71.4909C44.3106 71.7161 44.2715 71.9401 44.1903 72.1503C44.1114 72.3354 43.9774 72.4917 43.8063 72.5978C43.9399 72.6849 44.0414 72.8132 44.0952 72.9631C44.1533 73.1229 44.1818 73.2919 44.1793 73.4618V74.7934H43.064V73.5403C43.0661 73.4249 43.0456 73.3101 43.0036 73.2024C42.9789 73.1512 42.9384 73.1092 42.8881 73.0826C42.8377 73.0559 42.7802 73.0461 42.7239 73.0545H42.2869V74.7934H41.1733L41.166 70.0899ZM42.7531 72.2106C42.8053 72.2118 42.857 72.2001 42.9036 72.1765C42.9502 72.1529 42.9902 72.1182 43.0201 72.0754C43.0991 71.9316 43.1335 71.7675 43.1188 71.6042C43.1356 71.4332 43.0999 71.2612 43.0164 71.111C42.9834 71.0672 42.9401 71.0321 42.8904 71.0089C42.8407 70.9857 42.786 70.9749 42.7312 70.9776H42.2796V72.2106H42.7531Z" fill="white"/>
<path d="M48.123 74.8862C47.8745 74.8885 47.6274 74.8496 47.3916 74.7711C47.1744 74.6953 46.9796 74.5666 46.8248 74.3966C46.6539 74.2043 46.5288 73.9757 46.4591 73.7281C46.3681 73.4012 46.3256 73.0627 46.333 72.7235V72.1536C46.325 71.8141 46.3687 71.4753 46.4628 71.1489C46.534 70.902 46.6589 70.6737 46.8285 70.4804C46.9853 70.3141 47.1806 70.1886 47.3971 70.1151C47.8764 69.9616 48.3916 69.9616 48.8709 70.1151C49.0868 70.1878 49.281 70.3134 49.4359 70.4804C49.605 70.674 49.7298 70.9022 49.8015 71.1489C49.894 71.4756 49.9372 71.8142 49.9295 72.1536V72.7235C49.9365 73.0626 49.8946 73.4009 49.8052 73.7281C49.735 73.9755 49.61 74.204 49.4395 74.3966C49.2867 74.5673 49.0929 74.6961 48.8763 74.7711C48.6335 74.8516 48.3788 74.8905 48.123 74.8862ZM48.123 70.8786C48.0149 70.8746 47.9081 70.9025 47.8158 70.959C47.7326 71.0189 47.6689 71.1022 47.633 71.1983C47.586 71.3264 47.5565 71.4604 47.5452 71.5965C47.5272 71.784 47.5186 71.9724 47.5196 72.1609V72.7089C47.5186 72.8967 47.5272 73.0845 47.5452 73.2714C47.5562 73.4075 47.5858 73.5415 47.633 73.6696C47.6688 73.7658 47.7325 73.8491 47.8158 73.9089C47.9032 73.9674 48.007 73.9962 48.1121 73.9911C48.2205 73.9966 48.328 73.9679 48.4192 73.9089C48.5029 73.8494 48.5666 73.766 48.6021 73.6696C48.6495 73.5416 48.6784 73.4076 48.688 73.2714C48.7008 73.1125 48.7081 72.9244 48.7081 72.7089V72.1609C48.7216 71.8351 48.6846 71.5091 48.5984 71.1946C48.5689 71.0961 48.5061 71.0108 48.4208 70.9532C48.3355 70.8956 48.2329 70.8692 48.1303 70.8786H48.123Z" fill="white"/>
<path d="M51.9512 74.7881V70.0901H53.5163C53.7696 70.0871 54.0218 70.1228 54.2642 70.196C54.4842 70.2623 54.6832 70.3844 54.842 70.5504C55.0111 70.7391 55.1361 70.9631 55.2077 71.2061C55.3035 71.5297 55.3485 71.8661 55.3411 72.2034V72.6747C55.3493 73.0124 55.303 73.3491 55.204 73.672C55.1277 73.9166 54.997 74.1407 54.8219 74.3278C54.6621 74.4929 54.4634 74.6154 54.2441 74.684C54.0069 74.7552 53.7603 74.7903 53.5127 74.7881H51.9512ZM53.0866 73.8748H53.3755C53.4849 73.8762 53.5939 73.8621 53.6992 73.8328C53.7943 73.8034 53.8779 73.7453 53.9387 73.6666C54.0137 73.5652 54.0655 73.4486 54.0905 73.325C54.1308 73.1353 54.1486 72.9416 54.1435 72.7478V72.1413C54.1473 71.949 54.1308 71.7567 54.0941 71.5678C54.0717 71.4436 54.0224 71.3258 53.9497 71.2226C53.8904 71.1431 53.808 71.0838 53.7138 71.0527C53.6088 71.0214 53.4997 71.006 53.3902 71.007H53.0866V73.8748Z" fill="white"/>
<path d="M59.1159 74.8865C58.8604 74.8916 58.6057 74.8571 58.3608 74.7842C58.1517 74.7229 57.9625 74.6076 57.8122 74.45C57.6558 74.2759 57.5425 74.0675 57.4813 73.8417C57.3995 73.5394 57.3613 73.2269 57.3679 72.9138V70.0899H58.5528V72.8024C58.5528 73.0179 58.5528 73.2006 58.5711 73.3504C58.5774 73.4754 58.6033 73.5987 58.6479 73.7157C58.6796 73.8022 58.7395 73.8755 58.8179 73.9239C58.9081 73.9705 59.009 73.9926 59.1105 73.9879C59.2119 73.9921 59.3126 73.9701 59.403 73.9239C59.481 73.8754 59.5402 73.802 59.5712 73.7157C59.6156 73.5985 59.6421 73.4754 59.6499 73.3504C59.6608 73.1988 59.6663 73.0161 59.6663 72.8024V70.0899H60.8512V72.8937C60.8581 73.2141 60.823 73.5341 60.7469 73.8454C60.6892 74.0717 60.579 74.2814 60.4251 74.4573C60.2763 74.6159 60.0865 74.7304 59.8766 74.7879C59.629 74.8569 59.3729 74.8901 59.1159 74.8865Z" fill="white"/>
<path d="M62.877 73.9497L64.6908 71.0052H62.9263V70.0919H65.9671V70.9139L64.1825 73.8657H66.0109V74.779H62.877V73.9497Z" fill="white"/>
<path d="M68.0332 70.0899H69.2181V74.7879H68.0332V70.0899Z" fill="white"/>
<path d="M71.2422 70.0899H72.1802L73.4857 72.6471V70.0899H74.5828V74.7879H73.6448L72.3393 72.3293V74.7879H71.2422V70.0899Z" fill="white"/>
<path d="M76.6074 74.7881V70.0901H78.1726C78.4258 70.0871 78.678 70.1228 78.9204 70.196C79.1402 70.2618 79.3393 70.3833 79.4982 70.5486C79.6674 70.7373 79.7923 70.9613 79.8639 71.2043C79.9598 71.5278 80.0048 71.8643 79.9974 72.2016V72.6729C80.0056 73.0105 79.9593 73.3473 79.8602 73.6702C79.7832 73.9144 79.6526 74.1384 79.4781 74.326C79.3183 74.4911 79.1197 74.6135 78.9003 74.6821C78.6631 74.7533 78.4166 74.7884 78.1689 74.7863L76.6074 74.7881ZM77.7429 73.8748H78.0318C78.1411 73.8762 78.2501 73.8621 78.3554 73.8328C78.4505 73.8034 78.5342 73.7453 78.595 73.6666C78.67 73.5652 78.7218 73.4486 78.7467 73.325C78.787 73.1353 78.8048 72.9416 78.7997 72.7478V72.1413C78.8036 71.949 78.787 71.7567 78.7504 71.5678C78.728 71.4436 78.6787 71.3258 78.6059 71.2226C78.5466 71.1431 78.4643 71.0838 78.3701 71.0527C78.2651 71.0214 78.156 71.006 78.0464 71.007H77.7429V73.8748Z" fill="white"/>
<path d="M83.8104 74.8862C83.5619 74.8885 83.3148 74.8496 83.079 74.7711C82.8618 74.6953 82.667 74.5666 82.5122 74.3966C82.3419 74.2038 82.217 73.9754 82.1465 73.7281C82.0555 73.4012 82.013 73.0627 82.0203 72.7235V72.1536C82.0133 71.8141 82.057 71.4755 82.1502 71.1489C82.2223 70.9023 82.347 70.6742 82.5159 70.4804C82.6717 70.3137 82.8664 70.1882 83.0827 70.1151C83.5619 69.9616 84.0772 69.9616 84.5564 70.1151C84.7723 70.1878 84.9666 70.3134 85.1214 70.4804C85.2905 70.6741 85.4153 70.9022 85.4871 71.1489C85.5781 71.4759 85.6206 71.8143 85.6133 72.1536V72.7235C85.6198 73.0624 85.5786 73.4006 85.4907 73.7281C85.4225 73.9744 85.3008 74.2027 85.1342 74.3966C84.9804 74.567 84.7861 74.6958 84.5692 74.7711C84.3246 74.8522 84.068 74.8911 83.8104 74.8862ZM83.8104 70.8786C83.7023 70.8746 83.5954 70.9025 83.5032 70.959C83.4199 71.0189 83.3563 71.1022 83.3204 71.1983C83.2733 71.3264 83.2438 71.4604 83.2326 71.5965C83.2145 71.784 83.206 71.9724 83.207 72.1609V72.7089C83.206 72.8967 83.2145 73.0845 83.2326 73.2714C83.2436 73.4075 83.2731 73.5415 83.3204 73.6696C83.3562 73.7658 83.4199 73.8491 83.5032 73.9089C83.5908 73.9669 83.6945 73.9957 83.7994 73.9911C83.905 73.9995 84.0104 73.9725 84.0988 73.9142C84.1873 73.856 84.2537 73.7699 84.2876 73.6696C84.3343 73.5415 84.3626 73.4075 84.3717 73.2714C84.3864 73.1125 84.3918 72.9244 84.3918 72.7089V72.1609C84.4048 71.8352 84.3684 71.5094 84.284 71.1946C84.2539 71.0968 84.1913 71.0121 84.1065 70.9546C84.0217 70.8972 83.9198 70.8704 83.8177 70.8786H83.8104Z" fill="white"/>
</svg>
