<svg width="19" height="19" viewBox="0 0 19 19" fill="none" xmlns="http://www.w3.org/2000/svg">
<path d="M18.757 6.64507L16.0319 4.65023V2.97006C16.0319 2.64215 15.7661 2.37635 15.4382 2.37635H12.9328L9.85146 0.114352C9.64281 -0.0381175 9.35954 -0.0381175 9.15089 0.114352L6.06958 2.37635H3.56416C3.23625 2.37635 2.97046 2.64215 2.97046 2.97006V4.65023L0.245373 6.64507C0.0919379 6.75717 0.00147266 6.93594 0.00195504 7.12597V17.2189C0.00195504 18.2026 0.79937 19 1.78306 19H17.2193C18.203 19 19.0004 18.2026 19.0004 17.2189V7.12597C19.0009 6.93594 18.9104 6.75717 18.757 6.64507ZM16.0319 6.12261L17.338 7.07847L16.0319 7.85622V6.12261ZM9.50118 1.33144L10.9261 2.37635H8.07629L9.50118 1.33144ZM4.15786 3.56376H14.8445V8.56866L9.50118 11.7746L4.15786 8.56866V3.56376ZM2.97046 6.12261V7.86216L1.66432 7.07847L2.97046 6.12261ZM17.813 17.2189C17.813 17.5468 17.5472 17.8126 17.2193 17.8126H1.78306C1.45515 17.8126 1.18936 17.5468 1.18936 17.2189V8.17682L9.19839 12.9799C9.38206 13.0859 9.60841 13.0859 9.79209 12.9799L17.813 8.17682V17.2189Z" fill="white"/>
</svg>
